<svg width="111" height="26" viewBox="0 0 111 26" fill="none" xmlns="http://www.w3.org/2000/svg">
<path d="M51.3644 10.9591H58.2046C58.7308 10.9591 59.2025 11.1586 59.6017 11.5397C60.0009 11.9388 60.2004 12.4106 60.2004 12.9549V12.9912C60.2004 13.5536 60.0009 14.0072 59.6017 14.3882C59.2025 14.7874 58.7489 14.987 58.2046 14.987H51.3644V23.8049C51.3644 24.3673 51.1648 24.8209 50.7657 25.2019C50.3665 25.6011 49.9129 25.8007 49.3686 25.8007H49.3142C48.7699 25.8007 48.3163 25.6011 47.9171 25.2019C47.5179 24.8391 47.3184 24.3673 47.3184 23.8049V6.16909C47.3184 4.51801 47.899 3.10279 49.0783 1.94159C50.2395 0.780385 51.6547 0.181641 53.3058 0.181641H58.3498C58.876 0.181641 59.3477 0.381222 59.7469 0.762241C60.146 1.1614 60.3456 1.63314 60.3456 2.17746V2.21374C60.3456 2.75806 60.146 3.2298 59.7469 3.62896C59.3477 4.00998 58.8941 4.20956 58.3498 4.20956H53.3239C52.7796 4.20956 52.3079 4.40915 51.9269 4.79016C51.5459 5.17118 51.3463 5.64292 51.3463 6.20538V10.9591H51.3644Z" fill="#F9A129"/>
<path d="M71.468 6.87695C72.0123 6.87695 72.4841 7.07653 72.8832 7.4757C73.2642 7.87486 73.4638 8.3466 73.4638 8.89091V8.9272C73.4638 9.47151 73.2642 9.94325 72.8832 10.3243C72.4841 10.7234 72.0123 10.923 71.468 10.923H70.5427C69.6536 10.923 68.8916 11.2315 68.2565 11.8484C67.6397 12.4652 67.3312 13.2273 67.3312 14.1345V23.8051C67.3312 24.3676 67.1316 24.8212 66.7325 25.2022C66.3333 25.6013 65.8797 25.8009 65.3354 25.8009H65.281C64.7367 25.8009 64.2831 25.6013 63.8839 25.2022C63.4847 24.8393 63.2852 24.3676 63.2852 23.8051V14.1163C63.3033 12.1205 64.0109 10.415 65.408 8.99978C66.8232 7.58456 68.5287 6.8951 70.5245 6.8951H71.468V6.87695Z" fill="#F9A129"/>
<path d="M78.707 4.75381C78.072 4.75381 77.5277 4.53609 77.0922 4.08249C76.6386 3.6289 76.4209 3.10273 76.4209 2.4677C76.4209 1.85081 76.6386 1.30649 77.0922 0.852899C77.5458 0.399305 78.072 0.18158 78.707 0.18158C79.3239 0.18158 79.8682 0.399305 80.3218 0.852899C80.7754 1.28835 81.0113 1.83267 81.0113 2.4677C81.0113 3.12087 80.7754 3.64704 80.3218 4.08249C79.8682 4.53609 79.3421 4.75381 78.707 4.75381ZM78.7252 6.87664C79.2876 6.87664 79.7412 7.07622 80.1222 7.47538C80.5214 7.87455 80.721 8.34628 80.721 8.8906V23.7866C80.721 24.3491 80.5214 24.8027 80.1222 25.1837C79.7594 25.5829 79.2876 25.7825 78.7252 25.7825H78.6889C78.1446 25.7825 77.6728 25.5829 77.2737 25.1837C76.8745 24.8208 76.6749 24.3491 76.6749 23.7866V8.8906C76.6749 8.34628 76.8745 7.87455 77.2737 7.47538C77.6728 7.07622 78.1446 6.87664 78.6889 6.87664H78.7252Z" fill="#F9A129"/>
<path d="M93.2041 20.1945L98.3933 8.09259C98.738 7.27612 99.3549 6.87695 100.226 6.87695H100.262C100.97 6.87695 101.532 7.1854 101.913 7.78414C102.149 8.12887 102.258 8.47361 102.258 8.85463C102.258 9.10864 102.203 9.38079 102.076 9.65295L95.9983 23.8595C95.4903 25.1296 94.5649 25.7646 93.2041 25.7646C91.8252 25.7646 90.8999 25.1296 90.41 23.8595L84.3137 9.65295C84.2048 9.38079 84.1504 9.12678 84.1504 8.87277C84.1504 8.50989 84.2592 8.14702 84.4951 7.78414C84.8943 7.1854 85.4386 6.87695 86.1462 6.87695H86.2006C87.0715 6.87695 87.6884 7.27612 88.015 8.09259C90.6277 14.207 92.1337 17.7088 92.5328 18.6523C92.551 18.6886 92.7687 19.2147 93.2041 20.1945Z" fill="#F9A129"/>
<path d="M107.701 4.75381C107.066 4.75381 106.522 4.53609 106.086 4.08249C105.633 3.6289 105.415 3.10273 105.415 2.4677C105.415 1.85081 105.633 1.30649 106.086 0.852899C106.54 0.399305 107.066 0.18158 107.701 0.18158C108.318 0.18158 108.862 0.399305 109.316 0.852899C109.77 1.28835 110.005 1.83267 110.005 2.4677C110.005 3.12087 109.77 3.64704 109.316 4.08249C108.862 4.53609 108.318 4.75381 107.701 4.75381ZM107.719 6.87664C108.282 6.87664 108.735 7.07622 109.116 7.47538C109.516 7.87455 109.715 8.34628 109.715 8.8906V23.7866C109.715 24.3491 109.516 24.8027 109.116 25.1837C108.753 25.5829 108.282 25.7825 107.719 25.7825H107.683C107.139 25.7825 106.667 25.5829 106.268 25.1837C105.869 24.8208 105.669 24.3491 105.669 23.7866V8.8906C105.669 8.34628 105.869 7.87455 106.268 7.47538C106.667 7.07622 107.139 6.87664 107.683 6.87664H107.719Z" fill="#F9A129"/>
<path d="M36.397 10.3057C39.2428 10.3057 41.5498 7.99867 41.5498 5.15284C41.5498 2.30701 39.2428 0 36.397 0C33.5511 0 31.2441 2.30701 31.2441 5.15284C31.2441 7.99867 33.5511 10.3057 36.397 10.3057Z" fill="#FFC577"/>
<path d="M15.6768 5.09823C15.6768 5.24338 15.6768 5.38853 15.6768 5.53368C15.9126 16.6558 24.8394 25.637 35.9434 25.9817C36.1248 25.9817 36.3062 25.9999 36.4877 25.9999C39.2455 25.9092 41.4591 23.6593 41.4591 20.9015C41.4591 18.4339 39.6991 16.3837 37.3404 15.8938C37.0864 15.8394 36.8506 15.8212 36.5965 15.8212C36.3607 15.8212 36.143 15.8212 35.9071 15.8031C30.3914 15.4583 26.0187 10.9587 25.8373 5.40668C25.8373 5.29781 25.8373 5.18895 25.8373 5.06194C25.8373 5.02566 25.8373 4.97122 25.8373 4.93494C25.6921 2.24965 23.4786 0.126831 20.757 0.126831C17.9992 0.144975 15.7675 2.34038 15.6768 5.09823Z" fill="#FFC577"/>
<path d="M36.5053 25.982C36.3238 25.982 36.1424 25.982 35.9609 25.9639Z" fill="#FFC577"/>
<path d="M5.15283 10.3057C7.99867 10.3057 10.3057 7.99867 10.3057 5.15284C10.3057 2.30701 7.99867 0 5.15283 0C2.307 0 0 2.30701 0 5.15284C0 7.99867 2.307 10.3057 5.15283 10.3057Z" fill="#F9A129"/>
<path d="M25.8741 5.09835C25.8741 5.2435 25.8741 5.38865 25.8741 5.5338C25.6383 16.6559 16.7115 25.6371 5.60751 25.9819C5.42607 25.9819 5.24463 26 5.06319 26C2.30534 25.9093 0.0917969 23.6594 0.0917969 20.9016C0.0917969 18.434 1.85174 16.3838 4.21044 15.8939C4.46445 15.8395 4.70032 15.8213 4.95433 15.8213C5.1902 15.8213 5.40793 15.8213 5.64379 15.8032C11.1595 15.4585 15.5322 10.9588 15.7136 5.4068C15.7136 5.29793 15.7136 5.18907 15.7136 5.06207C15.7136 5.02578 15.7136 4.97135 15.7136 4.93506C15.8587 2.24978 18.0723 0.126953 20.7939 0.126953C23.5517 0.145097 25.8015 2.3405 25.8741 5.09835Z" fill="#F9A129"/>
<path d="M5.04492 25.9821C5.22636 25.9821 5.4078 25.9821 5.58924 25.964Z" fill="#F9A129"/>
</svg>
