<svg width="32" height="32" viewBox="0 0 32 32" fill="none" xmlns="http://www.w3.org/2000/svg">
<path fill-rule="evenodd" clip-rule="evenodd" d="M3 9C3 8.44772 3.44772 8 4 8H28C28.5523 8 29 8.44772 29 9C29 9.55228 28.5523 10 28 10H4C3.44772 10 3 9.55228 3 9ZM10 16C10 15.4477 10.4477 15 11 15H28C28.5523 15 29 15.4477 29 16C29 16.5523 28.5523 17 28 17H11C10.4477 17 10 16.5523 10 16ZM17 22C16.4477 22 16 22.4477 16 23C16 23.5523 16.4477 24 17 24H28C28.5523 24 29 23.5523 29 23C29 22.4477 28.5523 22 28 22H17Z" fill="white"/>
</svg>
